<svg version="1.1" xmlns="http://www.w3.org/2000/svg" xmlns:xlink="http://www.w3.org/1999/xlink" width="469" height="679"><defs/><g><g/><g/><g/><g/><g/><g/><g/><g/><g/><g/><g><rect fill="white" stroke="none" x="0" y="0" width="469" height="679"/></g><g><text fill="black" stroke="none" font-family="sans-serif" font-size="16.5pt" font-style="normal" font-weight="normal" text-decoration="normal" x="126.44726474913347" y="24.50280495" text-anchor="start" dominant-baseline="alphabetic">Delayed Failure (long)</text></g><g/><g><path fill="none" stroke="black" paint-order="fill stroke markers" d=" M 47.48040092923048 95.887643371 L 47.48040092923048 679.0544011809999" stroke-miterlimit="10" stroke-width="1.3612669416666667" stroke-dasharray="12.565541,5.445067766666667"/><path fill="none" stroke="black" paint-order="fill stroke markers" d=" M 205.15706066920444 95.887643371 L 205.15706066920444 679.0544011809999" stroke-miterlimit="10" stroke-width="1.3612669416666667" stroke-dasharray="12.565541,5.445067766666667"/></g><g><path fill="none" stroke="none"/><g><path fill="white" stroke="black" paint-order="fill stroke markers" d=" M 8.167601650000002 51.782594461 L 86.79320020846095 51.782594461 L 86.79320020846095 95.887643371 L 8.167601650000002 95.887643371 L 8.167601650000002 51.782594461 Z" stroke-miterlimit="10" stroke-width="2.613632528" stroke-dasharray=""/></g><g><g/><text fill="black" stroke="none" font-family="sans-serif" font-size="11pt" font-style="normal" font-weight="normal" text-decoration="normal" x="25.891297230500008" y="79.55244007099999" text-anchor="start" dominant-baseline="alphabetic">Server</text></g><path fill="none" stroke="none"/><g><path fill="white" stroke="black" paint-order="fill stroke markers" d=" M 158.49636862874348 51.782594461 L 251.81775270966537 51.782594461 L 251.81775270966537 95.887643371 L 158.49636862874348 95.887643371 L 158.49636862874348 51.782594461 Z" stroke-miterlimit="10" stroke-width="2.613632528" stroke-dasharray=""/></g><g><g/><text fill="black" stroke="none" font-family="sans-serif" font-size="11pt" font-style="normal" font-weight="normal" text-decoration="normal" x="176.2200642092435" y="79.55244007099999" text-anchor="start" dominant-baseline="alphabetic">Endpoint</text></g></g><g><g><g><rect fill="white" stroke="none" x="74.97799315089715" y="128.558049971" width="102.68147529664063" height="21.23576429"/></g><text fill="black" stroke="none" font-family="sans-serif" font-size="11pt" font-style="normal" font-weight="normal" text-decoration="normal" x="77.42827364589715" y="143.259732941" text-anchor="start" dominant-baseline="alphabetic">Event 1: Active</text></g><g><path fill="none" stroke="black" paint-order="fill stroke markers" d=" M 47.48040092923048 149.793814261 L 202.4345267858711 149.793814261" stroke-miterlimit="10" stroke-width="1.3612669416666667" stroke-dasharray=""/><g transform="translate(205.15706066920444,149.793814261) translate(-205.15706066920444,-149.793814261)"><path fill="black" stroke="none" paint-order="stroke fill markers" d=" M 191.54439125253776 142.98747955266666 L 205.15706066920444 149.793814261 L 191.54439125253776 156.60014896933333 Z"/></g></g><g><g><rect fill="white" stroke="none" x="74.97799315089715" y="174.296619211" width="102.68147529664063" height="21.23576429"/></g><text fill="black" stroke="none" font-family="sans-serif" font-size="11pt" font-style="normal" font-weight="normal" text-decoration="normal" x="77.42827364589715" y="188.99830218099999" text-anchor="start" dominant-baseline="alphabetic">Event 2: Active</text></g><g><path fill="none" stroke="black" paint-order="fill stroke markers" d=" M 47.48040092923048 195.532383501 L 202.4345267858711 195.532383501" stroke-miterlimit="10" stroke-width="1.3612669416666667" stroke-dasharray=""/><g transform="translate(205.15706066920444,195.532383501) translate(-205.15706066920444,-195.532383501)"><path fill="black" stroke="none" paint-order="stroke fill markers" d=" M 191.54439125253776 188.72604879266666 L 205.15706066920444 195.532383501 L 191.54439125253776 202.33871820933334 Z"/></g></g><g><g><rect fill="white" stroke="none" x="70.89419232589715" y="227.05823857088907" width="102.68147529664063" height="21.23576429"/></g><text fill="black" stroke="none" font-family="sans-serif" font-size="11pt" font-style="normal" font-weight="normal" text-decoration="normal" x="73.34447282089715" y="241.75992154088905" text-anchor="start" dominant-baseline="alphabetic">Event 3: Active</text></g><g><path fill="none" stroke="red" paint-order="fill stroke markers" d=" M 47.48040092923048 220.03518845099995 L 188.82185736920445 383.38722145099996" stroke-miterlimit="10" stroke-width="1.3612669416666667" stroke-dasharray=""/><path fill="none" stroke="red" paint-order="fill stroke markers" d=" M 180.65425571920446 375.21961980099996 L 196.98945901920445 391.55482310099995 M 180.65425571920446 391.55482310099995 L 196.98945901920445 375.21961980099996" stroke-miterlimit="10" stroke-width="1.3612669416666667"/></g><path fill="white" stroke="black" paint-order="fill stroke markers" d=" M 205.15706066920444 222.48546894599997 L 213.32466231920444 222.48546894599997 M 213.32466231920444 203.69998515099996 L 446.45883862826696 203.69998515099996 L 461.16052159826694 218.40166812099997 L 461.16052159826694 241.27095274099997 L 213.32466231920444 241.27095274099997 L 213.32466231920444 203.69998515099996 M 446.45883862826696 203.69998515099996 L 446.45883862826696 218.40166812099997 L 461.16052159826694 218.40166812099997" stroke-miterlimit="10" stroke-width="1.3612669416666667" stroke-dasharray=""/><g><text fill="black" stroke="none" font-family="sans-serif" font-size="11pt" font-style="normal" font-weight="normal" text-decoration="normal" x="236.19394693920447" y="226.56926977099994" text-anchor="start" dominant-baseline="alphabetic">Out of order message detected</text></g><g><g><rect fill="white" stroke="none" x="74.97799315089715" y="265.77375769099996" width="102.68147529664063" height="21.23576429"/></g><text fill="black" stroke="none" font-family="sans-serif" font-size="11pt" font-style="normal" font-weight="normal" text-decoration="normal" x="77.42827364589715" y="280.47544066099994" text-anchor="start" dominant-baseline="alphabetic">Event 4: Active</text></g><g><path fill="none" stroke="black" paint-order="fill stroke markers" d=" M 47.48040092923048 287.009521981 L 202.4345267858711 287.009521981" stroke-miterlimit="10" stroke-width="1.3612669416666667" stroke-dasharray=""/><g transform="translate(205.15706066920444,287.009521981) translate(-205.15706066920444,-287.009521981)"><path fill="black" stroke="none" paint-order="stroke fill markers" d=" M 191.54439125253776 280.20318727266664 L 205.15706066920444 287.009521981 L 191.54439125253776 293.8158566893333 Z"/></g></g><g><g><rect fill="white" stroke="none" x="74.97799315089715" y="311.51232693099996" width="102.68147529664063" height="21.23576429"/></g><text fill="black" stroke="none" font-family="sans-serif" font-size="11pt" font-style="normal" font-weight="normal" text-decoration="normal" x="77.42827364589715" y="326.21400990099994" text-anchor="start" dominant-baseline="alphabetic">Event 5: Active</text></g><g><path fill="none" stroke="black" paint-order="fill stroke markers" d=" M 47.48040092923048 332.748091221 L 202.4345267858711 332.748091221" stroke-miterlimit="10" stroke-width="1.3612669416666667" stroke-dasharray=""/><g transform="translate(205.15706066920444,332.748091221) translate(-205.15706066920444,-332.748091221)"><path fill="black" stroke="none" paint-order="stroke fill markers" d=" M 191.54439125253776 325.94175651266664 L 205.15706066920444 332.748091221 L 191.54439125253776 339.5544259293333 Z"/></g></g><path fill="none" stroke="black" paint-order="fill stroke markers" d=" M 8.16760165 427.7645237493333 L 460.83239835 427.7645237493333 M 8.16760165 433.209591516 L 460.83239835 433.209591516 M 8.16760165 438.65465928266667 L 460.83239835 438.65465928266667" stroke-miterlimit="10" stroke-width="1.3612669416666667" stroke-dasharray=""/><path fill="white" stroke="black" paint-order="fill stroke markers" d=" M 138.9786310294141 414.424107721 L 330.02136897058597 414.424107721 L 330.02136897058597 451.995075311 L 138.9786310294141 451.995075311 Z" stroke-miterlimit="10" stroke-width="1.3612669416666667" stroke-dasharray=""/><g><text fill="black" stroke="none" font-family="sans-serif" font-size="11pt" font-style="normal" font-weight="normal" text-decoration="normal" x="161.84791564941406" y="437.29339234099996" text-anchor="start" dominant-baseline="alphabetic">Inconsistency Timeout</text></g><path fill="white" stroke="black" paint-order="fill stroke markers" d=" M 205.15706066920444 495.283364056 L 213.32466231920444 495.283364056 M 213.32466231920444 476.497880261 L 436.68073193881384 476.497880261 L 451.3824149088138 491.19956323099996 L 451.3824149088138 514.068847851 L 213.32466231920444 514.068847851 L 213.32466231920444 476.497880261 M 436.68073193881384 476.497880261 L 436.68073193881384 491.19956323099996 L 451.3824149088138 491.19956323099996" stroke-miterlimit="10" stroke-width="1.3612669416666667" stroke-dasharray=""/><g><text fill="black" stroke="none" font-family="sans-serif" font-size="11pt" font-style="normal" font-weight="normal" text-decoration="normal" x="236.19394693920447" y="499.36716488099995" text-anchor="start" dominant-baseline="alphabetic">Rebuild due to missing event.</text></g><g><g><rect fill="white" stroke="none" x="78.6501504384948" y="538.5716528009999" width="95.33716072144531" height="21.23576429"/></g><text fill="black" stroke="none" font-family="sans-serif" font-size="11pt" font-style="normal" font-weight="normal" text-decoration="normal" x="81.1004309334948" y="553.2733357709999" text-anchor="start" dominant-baseline="alphabetic">Event 6: Error</text></g><g><path fill="none" stroke="black" paint-order="fill stroke markers" d=" M 47.48040092923048 559.8074170909999 L 202.4345267858711 559.8074170909999" stroke-miterlimit="10" stroke-width="1.3612669416666667" stroke-dasharray=""/><g transform="translate(205.15706066920444,559.8074170909999) translate(-205.15706066920444,-559.8074170909999)"><path fill="black" stroke="none" paint-order="stroke fill markers" d=" M 191.54439125253776 553.0010823826666 L 205.15706066920444 559.8074170909999 L 191.54439125253776 566.6137517993333 Z"/></g></g><path fill="white" stroke="black" paint-order="fill stroke markers" d=" M 205.15706066920444 603.0957058359999 L 213.32466231920444 603.0957058359999 M 213.32466231920444 584.3102220409999 L 373.931998418306 584.3102220409999 L 388.633681388306 599.0119050109998 L 388.633681388306 621.8811896309999 L 213.32466231920444 621.8811896309999 L 213.32466231920444 584.3102220409999 M 373.931998418306 584.3102220409999 L 373.931998418306 599.0119050109998 L 388.633681388306 599.0119050109998" stroke-miterlimit="10" stroke-width="1.3612669416666667" stroke-dasharray=""/><g><text fill="black" stroke="none" font-family="sans-serif" font-size="11pt" font-style="normal" font-weight="normal" text-decoration="normal" x="236.19394693920447" y="607.1795066609999" text-anchor="start" dominant-baseline="alphabetic">Rebuild due to error</text></g></g><g/><g/></g></svg>